<svg xmlns="http://www.w3.org/2000/svg" viewBox="0 0 558 558"><path d="M270.5 0h16.9a280.3 280.3 0 0 1 264.3 219.9c3.7 16.6 5.5 33.6 6.3 50.6v15.1a280.4 280.4 0 0 1-155.6 243.7A278.7 278.7 0 0 1 281.7 558h-10.2c-40-1.3-80-10.8-115.9-28.7a280.4 280.4 0 0 1-132-138A281 281 0 0 1 0 285.8v-15A280.3 280.3 0 0 1 270.5 0M83.2 81.8c-3.2 3.1-3.5 8-4 12-1.4 10.7.3 21.3.6 32l.5-1.7c-.3 5.3.7 10.5 1.3 15.7A1103.9 1103.9 0 0 0 116.5 300c.2 1.8 1.7 3.7.8 5.5-24 35.6-42 75.3-53.2 116.8a173 173 0 0 1 26.8-13.4 67.2 67.2 0 0 0-4.7 22.4c19.4-10 40.7-17.7 62.8-18 13.3-.3 27 3 37.7 11a73 73 0 0 1 25 41.7c3 12.6 4.4 26 11.2 37.2a31 31 0 0 0 21 14.8c7.7 11.2 22 15.5 35 15.5s27.5-4.2 35.1-15.5c7.8-1.4 15-6 19.5-12.5 8.4-11.7 9.6-26.5 13-40.1a71.3 71.3 0 0 1 24.8-41 59.9 59.9 0 0 1 37.7-11c22 .2 43.4 7.8 62.8 17.9 0-7.7-2-15.2-4.7-22.4 9.3 3.5 18.3 8.2 26.8 13.4-1.5-6.2-3.4-12.2-5.3-18.2a386.2 386.2 0 0 0-52.2-104.6c-.5-1-1.7-2-1.1-3.3 11-37.2 19.6-75 26.8-113.1 4-22 7.5-44 9.2-66.2.4-8.3.8-16.7-.2-25-.6-3.6-1-7.7-4-10-2.8-1.6-6-.5-8.9.4-9.8 3.3-18 9.6-26.2 15.8a415 415 0 0 0-35 32 1202 1202 0 0 0-70 78.9 137.7 137.7 0 0 0-46-9.2c-19.1-.3-38 4.2-55.7 11.2a1090 1090 0 0 0-81.3-90.2c-8.9-8.7-18.2-17-28-24.7a84 84 0 0 0-24-14c-2.9-.8-6-1.7-8.8-.2Z"/><path d="M334.5 355.7c4.5-.8 9.5-.4 13.1 2.8a15.2 15.2 0 0 1 4.2 18.7c-3.8 8-15.4 11-22.4 5.3a15.2 15.2 0 0 1 5-26.8ZM215 356c9.5-3.3 21.2 4.6 19.9 15 .2 10.3-11.7 17.2-20.9 13.4-7.3-2-11-10.4-9-17.4a15 15 0 0 1 10-11Zm54.5 105.8c8.6-2.1 18-1.4 26 2.6 5 2.4 9.4 6.9 9.8 12.6a23.7 23.7 0 0 1-7 14.2A26 26 0 0 1 279 500c-7.8.3-15.1-4-20.2-9.7-3.4-4-6.4-9-6-14.3 1.5-8 9.4-12.4 16.7-14.1Z"/></svg>