<?xml version="1.0" encoding="UTF-8" ?>
<!DOCTYPE svg PUBLIC "-//W3C//DTD SVG 1.1//EN" "http://www.w3.org/Graphics/SVG/1.1/DTD/svg11.dtd">
<svg width="558pt" height="558pt" viewBox="0 0 558 558" version="1.1" xmlns="http://www.w3.org/2000/svg">
<g id="#000000ff">
<path fill="#000000" opacity="1.00" d=" M 270.54 0.00 L 287.37 0.00 C 321.08 1.28 354.65 8.16 385.81 21.19 C 433.37 40.84 475.17 74.03 505.27 115.74 C 527.70 146.76 543.66 182.44 551.71 219.87 C 555.39 236.51 557.17 253.51 558.00 270.51 L 558.00 285.64 C 556.90 326.49 547.03 367.14 528.65 403.68 C 501.70 457.80 456.62 502.63 402.37 529.30 C 364.99 547.82 323.40 557.61 281.70 558.00 L 271.49 558.00 C 231.42 556.74 191.57 547.16 155.63 529.30 C 97.28 500.65 49.64 450.93 23.57 391.38 C 8.83 358.14 1.03 321.98 0.00 285.66 L 0.00 270.61 C 1.27 237.44 7.93 204.42 20.57 173.69 C 43.39 117.43 85.22 69.19 137.57 38.47 C 177.71 14.65 223.94 1.62 270.54 0.00 M 83.22 81.94 C 80.05 85.05 79.65 89.81 79.21 93.98 C 77.77 104.58 79.53 115.20 79.80 125.81 C 79.97 125.26 80.14 124.72 80.30 124.18 C 80.00 129.47 81.04 134.70 81.59 139.94 C 83.27 153.20 85.50 166.38 87.85 179.54 C 95.31 220.15 104.48 260.50 116.45 300.04 C 116.74 301.79 118.24 303.74 117.31 305.48 C 93.26 341.09 75.26 380.78 64.06 422.25 C 72.64 417.11 81.57 412.44 90.92 408.86 C 88.33 416.07 86.19 423.54 86.17 431.27 C 105.59 421.24 126.90 413.59 148.97 413.34 C 162.26 412.96 175.98 416.24 186.72 424.35 C 200.14 434.30 207.78 450.13 211.62 466.04 C 214.67 478.58 216.09 491.92 222.92 503.17 C 227.45 510.78 235.19 516.50 243.99 518.00 C 251.62 529.23 265.97 533.52 278.97 533.50 C 291.98 533.54 306.37 529.26 314.00 518.01 C 321.81 516.63 328.94 512.01 333.49 505.53 C 341.86 493.78 343.14 478.99 346.55 465.40 C 350.42 449.70 358.05 434.15 371.30 424.34 C 382.01 416.24 395.71 413.00 408.97 413.34 C 431.06 413.59 452.39 421.22 471.83 431.27 C 471.79 423.56 469.71 416.08 467.08 408.91 C 476.45 412.39 485.35 417.13 493.94 422.25 C 492.44 416.12 490.51 410.10 488.62 404.08 C 476.38 366.98 459.26 331.32 436.43 299.54 C 435.86 298.54 434.66 297.46 435.30 296.20 C 446.39 259.04 454.91 221.15 462.13 183.06 C 466.19 161.17 469.57 139.12 471.28 116.91 C 471.75 108.57 472.14 100.17 471.15 91.85 C 470.53 88.31 470.06 84.23 467.09 81.81 C 464.28 80.35 461.02 81.40 458.21 82.26 C 448.44 85.57 440.12 91.89 432.04 98.12 C 419.67 107.96 408.24 118.93 397.08 130.11 C 372.44 155.23 349.32 181.80 326.99 208.97 C 312.35 203.32 296.73 200.21 281.04 199.81 C 261.90 199.47 242.99 203.97 225.29 211.03 C 199.59 179.77 173.08 149.08 144.04 120.85 C 135.12 112.10 125.82 103.71 115.92 96.08 C 108.53 90.50 100.82 84.99 91.93 82.10 C 89.14 81.28 85.91 80.39 83.22 81.94 Z" />
<path fill="#000000" opacity="1.00" d=" M 334.46 355.66 C 338.97 354.90 344.03 355.27 347.60 358.46 C 353.24 362.66 355.11 370.96 351.84 377.18 C 348.02 385.28 336.45 388.16 329.41 382.51 C 322.68 377.94 321.22 367.55 326.25 361.23 C 328.25 358.53 331.23 356.56 334.46 355.66 Z" />
<path fill="#000000" opacity="1.00" d=" M 215.04 355.91 C 224.49 352.72 236.17 360.65 234.88 370.99 C 235.13 381.26 223.21 388.21 214.04 384.41 C 206.74 382.49 203.06 373.97 204.92 367.02 C 206.07 361.89 210.10 357.58 215.04 355.91 Z" />
<path fill="#000000" opacity="1.00" d=" M 269.48 461.78 C 278.12 459.68 287.57 460.40 295.58 464.38 C 300.49 466.80 304.86 471.26 305.34 476.96 C 304.97 482.45 301.96 487.33 298.26 491.24 C 293.23 496.35 286.39 500.20 279.03 499.86 C 271.17 500.22 263.88 495.88 258.78 490.19 C 255.38 486.21 252.44 481.25 252.79 475.85 C 254.33 467.95 262.25 463.50 269.48 461.78 Z" />
</g>
</svg>
